<mxfile host="app.diagrams.net" agent="Mozilla/5.0 (Windows NT 10.0; Win64; x64) AppleWebKit/537.36 (KHTML, like Gecko) Chrome/131.0.0.0 Safari/537.36" version="26.0.1">
  <diagram name="Page-1" id="X3YaCSp8oxL7MfngXXWX">
    <mxGraphModel dx="2284" dy="772" grid="1" gridSize="10" guides="1" tooltips="1" connect="1" arrows="1" fold="1" page="1" pageScale="1" pageWidth="850" pageHeight="1100" math="0" shadow="0">
      <root>
        <mxCell id="0" />
        <mxCell id="1" parent="0" />
        <mxCell id="yOvKHf8KI_yJCevXK5pf-15" style="edgeStyle=orthogonalEdgeStyle;rounded=0;orthogonalLoop=1;jettySize=auto;html=1;exitX=0;exitY=1;exitDx=0;exitDy=0;exitPerimeter=0;" edge="1" parent="1" source="yOvKHf8KI_yJCevXK5pf-1" target="yOvKHf8KI_yJCevXK5pf-14">
          <mxGeometry relative="1" as="geometry" />
        </mxCell>
        <mxCell id="yOvKHf8KI_yJCevXK5pf-1" value="Admins" style="shape=umlActor;verticalLabelPosition=bottom;verticalAlign=top;html=1;outlineConnect=0;" vertex="1" parent="1">
          <mxGeometry x="395" y="180" width="30" height="60" as="geometry" />
        </mxCell>
        <mxCell id="yOvKHf8KI_yJCevXK5pf-12" style="edgeStyle=orthogonalEdgeStyle;rounded=0;orthogonalLoop=1;jettySize=auto;html=1;exitX=0;exitY=1;exitDx=0;exitDy=0;exitPerimeter=0;" edge="1" parent="1" source="yOvKHf8KI_yJCevXK5pf-2" target="yOvKHf8KI_yJCevXK5pf-10">
          <mxGeometry relative="1" as="geometry" />
        </mxCell>
        <mxCell id="yOvKHf8KI_yJCevXK5pf-2" value="Users" style="shape=umlActor;verticalLabelPosition=bottom;verticalAlign=top;html=1;outlineConnect=0;" vertex="1" parent="1">
          <mxGeometry x="260" y="170" width="30" height="60" as="geometry" />
        </mxCell>
        <mxCell id="yOvKHf8KI_yJCevXK5pf-21" style="edgeStyle=orthogonalEdgeStyle;rounded=0;orthogonalLoop=1;jettySize=auto;html=1;exitX=1;exitY=1;exitDx=0;exitDy=0;exitPerimeter=0;entryX=0.5;entryY=0;entryDx=0;entryDy=0;" edge="1" parent="1" source="yOvKHf8KI_yJCevXK5pf-3" target="yOvKHf8KI_yJCevXK5pf-20">
          <mxGeometry relative="1" as="geometry" />
        </mxCell>
        <mxCell id="yOvKHf8KI_yJCevXK5pf-3" value="Prosecutors" style="shape=umlActor;verticalLabelPosition=bottom;verticalAlign=top;html=1;outlineConnect=0;" vertex="1" parent="1">
          <mxGeometry x="530" y="160" width="30" height="60" as="geometry" />
        </mxCell>
        <mxCell id="yOvKHf8KI_yJCevXK5pf-13" style="edgeStyle=orthogonalEdgeStyle;rounded=0;orthogonalLoop=1;jettySize=auto;html=1;exitX=0.5;exitY=1;exitDx=0;exitDy=0;" edge="1" parent="1" source="yOvKHf8KI_yJCevXK5pf-10" target="yOvKHf8KI_yJCevXK5pf-11">
          <mxGeometry relative="1" as="geometry" />
        </mxCell>
        <mxCell id="yOvKHf8KI_yJCevXK5pf-10" value="Login" style="ellipse;whiteSpace=wrap;html=1;" vertex="1" parent="1">
          <mxGeometry x="90" y="310" width="120" height="80" as="geometry" />
        </mxCell>
        <mxCell id="yOvKHf8KI_yJCevXK5pf-11" value="View Cases information&lt;div&gt;(Not full informations)&lt;/div&gt;" style="rounded=0;whiteSpace=wrap;html=1;" vertex="1" parent="1">
          <mxGeometry x="90" y="440" width="120" height="60" as="geometry" />
        </mxCell>
        <mxCell id="yOvKHf8KI_yJCevXK5pf-18" style="edgeStyle=orthogonalEdgeStyle;rounded=0;orthogonalLoop=1;jettySize=auto;html=1;exitX=0;exitY=1;exitDx=0;exitDy=0;" edge="1" parent="1" source="yOvKHf8KI_yJCevXK5pf-14" target="yOvKHf8KI_yJCevXK5pf-16">
          <mxGeometry relative="1" as="geometry" />
        </mxCell>
        <mxCell id="yOvKHf8KI_yJCevXK5pf-19" style="edgeStyle=orthogonalEdgeStyle;rounded=0;orthogonalLoop=1;jettySize=auto;html=1;exitX=1;exitY=1;exitDx=0;exitDy=0;entryX=0.5;entryY=0;entryDx=0;entryDy=0;" edge="1" parent="1" source="yOvKHf8KI_yJCevXK5pf-14" target="yOvKHf8KI_yJCevXK5pf-17">
          <mxGeometry relative="1" as="geometry" />
        </mxCell>
        <mxCell id="yOvKHf8KI_yJCevXK5pf-14" value="Login" style="ellipse;whiteSpace=wrap;html=1;" vertex="1" parent="1">
          <mxGeometry x="350" y="310" width="120" height="80" as="geometry" />
        </mxCell>
        <mxCell id="yOvKHf8KI_yJCevXK5pf-16" value="Manage Cases&amp;nbsp;" style="rounded=0;whiteSpace=wrap;html=1;" vertex="1" parent="1">
          <mxGeometry x="240" y="530" width="120" height="60" as="geometry" />
        </mxCell>
        <mxCell id="yOvKHf8KI_yJCevXK5pf-17" value="Assign Cases to Prosecutors" style="rounded=0;whiteSpace=wrap;html=1;" vertex="1" parent="1">
          <mxGeometry x="460" y="530" width="120" height="60" as="geometry" />
        </mxCell>
        <mxCell id="yOvKHf8KI_yJCevXK5pf-23" style="edgeStyle=orthogonalEdgeStyle;rounded=0;orthogonalLoop=1;jettySize=auto;html=1;exitX=0.5;exitY=1;exitDx=0;exitDy=0;" edge="1" parent="1" source="yOvKHf8KI_yJCevXK5pf-20" target="yOvKHf8KI_yJCevXK5pf-22">
          <mxGeometry relative="1" as="geometry" />
        </mxCell>
        <mxCell id="yOvKHf8KI_yJCevXK5pf-20" value="Login" style="ellipse;whiteSpace=wrap;html=1;" vertex="1" parent="1">
          <mxGeometry x="610" y="310" width="120" height="80" as="geometry" />
        </mxCell>
        <mxCell id="yOvKHf8KI_yJCevXK5pf-22" value="View Update and alter assigned cases" style="rounded=0;whiteSpace=wrap;html=1;" vertex="1" parent="1">
          <mxGeometry x="610" y="440" width="120" height="60" as="geometry" />
        </mxCell>
        <mxCell id="yOvKHf8KI_yJCevXK5pf-30" style="edgeStyle=orthogonalEdgeStyle;rounded=0;orthogonalLoop=1;jettySize=auto;html=1;exitX=1;exitY=1;exitDx=0;exitDy=0;exitPerimeter=0;entryX=0;entryY=0.5;entryDx=0;entryDy=0;" edge="1" parent="1" source="yOvKHf8KI_yJCevXK5pf-24" target="yOvKHf8KI_yJCevXK5pf-29">
          <mxGeometry relative="1" as="geometry" />
        </mxCell>
        <mxCell id="yOvKHf8KI_yJCevXK5pf-35" style="edgeStyle=orthogonalEdgeStyle;rounded=0;orthogonalLoop=1;jettySize=auto;html=1;exitX=0;exitY=1;exitDx=0;exitDy=0;exitPerimeter=0;entryX=0;entryY=0.5;entryDx=0;entryDy=0;" edge="1" parent="1" source="yOvKHf8KI_yJCevXK5pf-24" target="yOvKHf8KI_yJCevXK5pf-34">
          <mxGeometry relative="1" as="geometry" />
        </mxCell>
        <mxCell id="yOvKHf8KI_yJCevXK5pf-24" value="Hacker" style="shape=umlActor;verticalLabelPosition=bottom;verticalAlign=top;html=1;outlineConnect=0;" vertex="1" parent="1">
          <mxGeometry x="-230" y="320" width="30" height="60" as="geometry" />
        </mxCell>
        <mxCell id="yOvKHf8KI_yJCevXK5pf-37" style="edgeStyle=orthogonalEdgeStyle;rounded=0;orthogonalLoop=1;jettySize=auto;html=1;exitX=0;exitY=1;exitDx=0;exitDy=0;exitPerimeter=0;" edge="1" parent="1" source="yOvKHf8KI_yJCevXK5pf-28" target="yOvKHf8KI_yJCevXK5pf-29">
          <mxGeometry relative="1" as="geometry" />
        </mxCell>
        <mxCell id="yOvKHf8KI_yJCevXK5pf-28" value="Inside Threat" style="shape=umlActor;verticalLabelPosition=bottom;verticalAlign=top;html=1;outlineConnect=0;" vertex="1" parent="1">
          <mxGeometry x="-120" y="330" width="30" height="60" as="geometry" />
        </mxCell>
        <mxCell id="yOvKHf8KI_yJCevXK5pf-31" style="edgeStyle=orthogonalEdgeStyle;rounded=0;orthogonalLoop=1;jettySize=auto;html=1;exitX=1;exitY=0.5;exitDx=0;exitDy=0;entryX=0;entryY=0.5;entryDx=0;entryDy=0;" edge="1" parent="1" source="yOvKHf8KI_yJCevXK5pf-29" target="yOvKHf8KI_yJCevXK5pf-10">
          <mxGeometry relative="1" as="geometry" />
        </mxCell>
        <mxCell id="yOvKHf8KI_yJCevXK5pf-32" style="edgeStyle=orthogonalEdgeStyle;rounded=0;orthogonalLoop=1;jettySize=auto;html=1;exitX=0.5;exitY=1;exitDx=0;exitDy=0;entryX=0.5;entryY=1;entryDx=0;entryDy=0;" edge="1" parent="1" source="yOvKHf8KI_yJCevXK5pf-29" target="yOvKHf8KI_yJCevXK5pf-14">
          <mxGeometry relative="1" as="geometry" />
        </mxCell>
        <mxCell id="yOvKHf8KI_yJCevXK5pf-33" style="edgeStyle=orthogonalEdgeStyle;rounded=0;orthogonalLoop=1;jettySize=auto;html=1;exitX=1;exitY=1;exitDx=0;exitDy=0;entryX=1;entryY=0.5;entryDx=0;entryDy=0;" edge="1" parent="1" source="yOvKHf8KI_yJCevXK5pf-29" target="yOvKHf8KI_yJCevXK5pf-20">
          <mxGeometry relative="1" as="geometry">
            <Array as="points">
              <mxPoint x="-58" y="660" />
              <mxPoint x="750" y="660" />
              <mxPoint x="750" y="350" />
            </Array>
          </mxGeometry>
        </mxCell>
        <mxCell id="yOvKHf8KI_yJCevXK5pf-29" value="unauthorized access" style="ellipse;whiteSpace=wrap;html=1;" vertex="1" parent="1">
          <mxGeometry x="-160" y="530" width="120" height="80" as="geometry" />
        </mxCell>
        <mxCell id="yOvKHf8KI_yJCevXK5pf-36" style="edgeStyle=orthogonalEdgeStyle;rounded=0;orthogonalLoop=1;jettySize=auto;html=1;exitX=1;exitY=0.5;exitDx=0;exitDy=0;entryX=0.5;entryY=1;entryDx=0;entryDy=0;" edge="1" parent="1" source="yOvKHf8KI_yJCevXK5pf-34" target="yOvKHf8KI_yJCevXK5pf-22">
          <mxGeometry relative="1" as="geometry" />
        </mxCell>
        <mxCell id="yOvKHf8KI_yJCevXK5pf-34" value="Data Breach" style="ellipse;whiteSpace=wrap;html=1;" vertex="1" parent="1">
          <mxGeometry x="-160" y="710" width="120" height="80" as="geometry" />
        </mxCell>
      </root>
    </mxGraphModel>
  </diagram>
</mxfile>
